<svg width="26" height="30" viewBox="0 0 26 30" fill="none" xmlns="http://www.w3.org/2000/svg">
<path d="M25.3003 13.4317L25.2986 13.4297L14.6926 1.64581C14.2405 1.14328 13.6395 0.866455 13.0002 0.866455C12.3608 0.866455 11.7598 1.14306 11.3075 1.64559L0.707149 13.4236C0.703579 13.4275 0.700008 13.4317 0.696438 13.4357C-0.231907 14.4731 -0.23032 16.1564 0.701 17.1912C1.12649 17.6642 1.68846 17.9381 2.2893 17.9668C2.3137 17.9694 2.3383 17.9707 2.36309 17.9707H2.78581V26.643C2.78581 28.3591 4.04245 29.7553 5.58731 29.7553H9.73669C10.1572 29.7553 10.4984 29.3764 10.4984 28.909V22.1099C10.4984 21.3268 11.0717 20.6899 11.7765 20.6899H14.2239C14.9287 20.6899 15.5019 21.3268 15.5019 22.1099V28.909C15.5019 29.3764 15.8429 29.7553 16.2637 29.7553H20.413C21.9579 29.7553 23.2145 28.3591 23.2145 26.643V17.9707H23.6065C24.2456 17.9707 24.8467 17.6941 25.2992 17.1916C26.2315 16.155 26.2319 14.4689 25.3003 13.4317Z" fill="white"/>
</svg>
