<svg width="27" height="30" viewBox="0 0 27 30" fill="none" xmlns="http://www.w3.org/2000/svg">
<path d="M19.0671 23.1851V25.4512C19.0671 27.9503 17.2373 29.9834 14.9881 29.9834H4.73945C2.4902 29.9834 0.6604 27.9503 0.6604 25.4512V5.5095C0.6604 3.01037 2.4902 0.977295 4.73945 0.977295H14.9881C17.2373 0.977295 19.0671 3.01037 19.0671 5.5095V7.7756C19.0671 8.40143 18.6106 8.90865 18.0473 8.90865C17.4841 8.90865 17.0276 8.40143 17.0276 7.7756V5.5095C17.0276 4.26004 16.1126 3.2434 14.9881 3.2434H4.73945C3.61492 3.2434 2.69992 4.26004 2.69992 5.5095V25.4512C2.69992 26.7006 3.61492 27.7173 4.73945 27.7173H14.9881C16.1126 27.7173 17.0276 26.7006 17.0276 25.4512V23.1851C17.0276 22.5593 17.4841 22.052 18.0473 22.052C18.6106 22.052 19.0671 22.5593 19.0671 23.1851ZM26.0196 13.534L23.7361 10.9968C23.3378 10.5542 22.692 10.5542 22.2939 10.9968C21.8956 11.4392 21.8956 12.1567 22.2939 12.599L23.9181 14.4039H11.6738C11.1106 14.4039 10.6541 14.9112 10.6541 15.537C10.6541 16.1628 11.1106 16.67 11.6738 16.67H23.9181L22.2939 18.475C21.8956 18.9173 21.8956 19.6348 22.2939 20.0772C22.4931 20.2985 22.754 20.4091 23.0149 20.4091C23.276 20.4091 23.5369 20.2985 23.7361 20.0772L26.0196 17.54C27.0137 16.4355 27.0137 14.6385 26.0196 13.534Z" fill="white"/>
</svg>
