<svg width="42" height="41" viewBox="0 0 42 41" fill="none" xmlns="http://www.w3.org/2000/svg">
<path d="M27.5447 0.863522C27.8434 1.33285 28.0994 1.97285 28.3127 2.78352C28.5687 3.55152 28.6967 4.36219 28.6967 5.21552C28.6967 6.87952 28.3341 8.07419 27.6087 8.79952C26.9261 9.48219 25.9874 9.82352 24.7927 9.82352H11.3527V17.0555H25.3687C25.7101 17.5249 25.9874 18.1435 26.2007 18.9115C26.4567 19.6795 26.5847 20.4902 26.5847 21.3435C26.5847 22.9649 26.2221 24.1382 25.4967 24.8635C24.8141 25.5462 23.8754 25.8875 22.6807 25.8875H11.4807V39.3915C11.0114 39.5195 10.2647 39.6475 9.24073 39.7755C8.25939 39.9035 7.27806 39.9675 6.29673 39.9675C5.31539 39.9675 4.44073 39.8822 3.67273 39.7115C2.94739 39.5835 2.32873 39.3275 1.81673 38.9435C1.30473 38.5595 0.920728 38.0262 0.664728 37.3435C0.408728 36.6609 0.280728 35.7649 0.280728 34.6555V6.81552C0.280728 4.98085 0.814061 3.53019 1.88073 2.46352C2.94739 1.39685 4.39806 0.863522 6.23273 0.863522H27.5447ZM28.9662 34.4635C28.9662 32.6715 29.5209 31.1782 30.6302 29.9835C31.7396 28.7889 33.2542 28.1915 35.1742 28.1915C37.0942 28.1915 38.6089 28.7889 39.7182 29.9835C40.8276 31.1782 41.3822 32.6715 41.3822 34.4635C41.3822 36.2555 40.8276 37.7489 39.7182 38.9435C38.6089 40.1382 37.0942 40.7355 35.1742 40.7355C33.2542 40.7355 31.7396 40.1382 30.6302 38.9435C29.5209 37.7489 28.9662 36.2555 28.9662 34.4635Z" fill="white"/>
</svg>
