<svg width="27" height="26" viewBox="0 0 27 26" fill="none" xmlns="http://www.w3.org/2000/svg">
<path d="M23.8098 0.0887146H3.44644C1.91022 0.0887146 0.6604 1.4774 0.6604 3.18431V18.0432C0.6604 19.7501 1.91022 21.1388 3.44644 21.1388H10.007C10.0871 21.1388 10.1632 21.1815 10.2108 21.2532L12.6044 24.8589C12.8443 25.2203 13.2136 25.4287 13.6177 25.4308H13.6238C14.0256 25.4308 14.3942 25.2263 14.6358 24.8692L17.0837 21.2511C17.1313 21.1807 17.207 21.1387 17.2862 21.1387H23.8098C25.3461 21.1387 26.5959 19.75 26.5959 18.0431V3.18426C26.5959 1.47734 25.3461 0.0887146 23.8098 0.0887146ZM25.0762 18.0432C25.0762 18.1761 25.0592 18.3046 25.0281 18.4266L17.2218 10.8234L25.0762 3.58089V18.0432ZM23.8098 1.77722C24.0415 1.77722 24.2587 1.84702 24.4456 1.96819L14.439 11.1951C13.9704 11.6273 13.2902 11.6273 12.8216 11.1951L2.8132 1.96656C2.99961 1.8464 3.21586 1.77722 3.44644 1.77722H23.8098ZM2.22823 18.4266C2.19708 18.3046 2.18006 18.1761 2.18006 18.0432V3.57695L10.0366 10.8213L2.22823 18.4266ZM15.8691 20.2365L13.6255 23.5525L11.4338 20.2509C11.1011 19.7495 10.5676 19.4502 10.007 19.4502H3.48256L11.2208 11.9132L11.8511 12.4944C12.3666 12.9698 12.9983 13.2074 13.6303 13.2074C14.262 13.2074 14.894 12.9696 15.4094 12.4944L16.0375 11.9153L23.7736 19.4502H17.2862C16.732 19.4503 16.2022 19.7441 15.8691 20.2365Z" fill="white"/>
</svg>
