<svg width="24" height="30" viewBox="0 0 24 30" fill="none" xmlns="http://www.w3.org/2000/svg">
<path d="M12.1049 0.866425C8.31856 0.866425 5.23816 4.28909 5.23816 8.49608C5.23816 12.7031 8.31856 16.1257 12.1049 16.1257C15.8912 16.1257 18.9715 12.7031 18.9715 8.49608C18.9715 4.28909 15.8912 0.866425 12.1049 0.866425ZM12.1049 14.4303C9.15996 14.4303 6.76409 11.7682 6.76409 8.49608C6.76409 5.22397 9.15996 2.5619 12.1049 2.5619C15.0498 2.5619 17.4456 5.22397 17.4456 8.49608C17.4456 11.7682 15.0498 14.4303 12.1049 14.4303Z" fill="white"/>
<path d="M20.6484 21.1097C18.7684 18.9888 16.2762 17.8208 13.6308 17.8208H10.579C7.93361 17.8208 5.44135 18.9888 3.5614 21.1097C1.69066 23.2203 0.6604 26.0062 0.6604 28.9544C0.6604 29.4226 1.00201 29.8022 1.42337 29.8022H22.7864C23.2078 29.8022 23.5494 29.4226 23.5494 28.9544C23.5494 26.0062 22.5191 23.2203 20.6484 21.1097ZM2.2199 28.1067C2.60215 23.298 6.20518 19.5163 10.579 19.5163H13.6308C18.0046 19.5163 21.6076 23.298 21.9899 28.1067H2.2199Z" fill="white"/>
</svg>
