<svg width="22" height="31" viewBox="0 0 22 31" fill="none" xmlns="http://www.w3.org/2000/svg">
<path d="M3.944 26.304C3.944 24.992 4.344 23.92 5.144 23.088C5.976 22.224 7.112 21.792 8.552 21.792C9.992 21.792 11.112 22.224 11.912 23.088C12.744 23.92 13.16 24.992 13.16 26.304C13.16 27.616 12.744 28.704 11.912 29.568C11.112 30.4 9.992 30.816 8.552 30.816C7.112 30.816 5.976 30.4 5.144 29.568C4.344 28.704 3.944 27.616 3.944 26.304ZM5.528 20.016C4.984 19.728 4.472 19.216 3.992 18.48C3.512 17.712 3.272 16.816 3.272 15.792C3.272 14.8 3.528 14.064 4.04 13.584C4.584 13.072 5.368 12.688 6.392 12.432L10.136 11.52C11.736 11.104 12.536 10.336 12.536 9.216C12.536 8.608 12.232 8.08 11.624 7.632C11.048 7.184 10.04 6.96 8.6 6.96C7.288 6.96 6.056 7.136 4.904 7.488C3.752 7.808 2.824 8.192 2.12 8.64C1.576 8.224 1.112 7.728 0.728 7.152C0.344 6.544 0.152 5.824 0.152 4.992C0.152 4.16 0.392 3.44 0.872 2.832C1.352 2.192 2.008 1.68 2.84 1.296C3.704 0.879999 4.712 0.575999 5.864 0.383998C7.048 0.191998 8.344 0.0959988 9.752 0.0959988C13.528 0.0959988 16.376 0.943998 18.296 2.64C20.248 4.304 21.224 6.496 21.224 9.216C21.224 14.336 17.608 17.616 10.376 19.056L5.528 20.016Z" fill="white"/>
</svg>
