<svg width="30" height="34" viewBox="0 0 30 34" fill="none" xmlns="http://www.w3.org/2000/svg">
<path d="M20.0344 3.81372C15.4576 -1.27124 8.0086 -1.27124 3.43183 3.81372C-1.14394 8.89979 -1.14394 17.1748 3.43183 22.2609C7.50757 26.7881 13.8553 27.2731 18.4291 23.738C18.5253 24.244 18.7456 24.7268 19.0998 25.1203L25.765 32.5256C26.7363 33.6026 28.3059 33.6026 29.2723 32.5256C30.2426 31.4476 30.2426 29.7037 29.2723 28.629L22.607 21.2214C22.2548 20.8312 21.8193 20.5854 21.3639 20.4785C24.5477 15.3957 24.1111 8.34422 20.0344 3.81372ZM17.9301 19.9229C14.5131 23.7193 8.95213 23.7193 5.53617 19.9229C2.12121 16.1265 2.12121 9.94919 5.53617 6.15283C8.95213 2.35757 14.5131 2.35757 17.9301 6.15283C21.347 9.94919 21.347 16.1265 17.9301 19.9229Z" fill="#0C0B0B"/>
</svg>
