<svg width="27" height="30" viewBox="0 0 27 30" fill="none" xmlns="http://www.w3.org/2000/svg">
<path d="M14.4763 29.0888H12.8445C11.5247 29.0888 10.451 27.8958 10.451 26.4294V25.816C9.88989 25.6168 9.34476 25.3654 8.82105 25.0642L8.42983 25.4989C7.4823 26.553 5.9645 26.5221 5.0445 25.4985L3.89121 24.2171C2.96958 23.1942 2.94307 21.5083 3.89151 20.4556L4.28242 20.0213C4.0114 19.4394 3.78517 18.8338 3.60587 18.2102H3.05387C1.73417 18.2102 0.6604 17.0172 0.6604 15.5508V13.7376C0.6604 12.2712 1.73417 11.0782 3.05392 11.0782H3.60592C3.78522 10.4547 4.01146 9.84904 4.28247 9.26713L3.89126 8.8325C2.94337 7.78041 2.96953 6.09434 3.89156 5.07097L5.04496 3.78947C5.96709 2.76345 7.48454 2.73783 8.43024 3.7898L8.8211 4.2241C9.34481 3.92302 9.88994 3.6716 10.451 3.47236V2.85903C10.451 1.39262 11.5247 0.199585 12.8445 0.199585H14.4763C15.7961 0.199585 16.8698 1.39262 16.8698 2.85903V3.47242C17.4309 3.6716 17.976 3.92302 18.4997 4.22416L18.8909 3.78947C19.8384 2.73535 21.3562 2.76627 22.2763 3.78986L23.4295 5.07126C24.3512 6.09417 24.3777 7.78007 23.4292 8.83278L23.0383 9.26713C23.3093 9.84904 23.5356 10.4546 23.7149 11.0782H24.2669C25.5866 11.0782 26.6604 12.2712 26.6604 13.7376V15.5508C26.6604 17.0172 25.5866 18.2102 24.2669 18.2102H23.7149C23.5356 18.8337 23.3093 19.4394 23.0383 20.0213L23.4295 20.456C24.3774 21.508 24.3513 23.1941 23.4292 24.2175L22.2758 25.499C21.3537 26.525 19.8363 26.5506 18.8906 25.4986L18.4997 25.0643C17.976 25.3654 17.4309 25.6169 16.8698 25.8161V26.4295C16.8698 27.8958 15.7961 29.0888 14.4763 29.0888ZM9.07572 23.2867C9.80326 23.7648 10.5863 24.126 11.4031 24.3602C11.7394 24.4566 11.9745 24.7937 11.9745 25.1797V26.4294C11.9745 26.9624 12.3648 27.3961 12.8445 27.3961H14.4763C14.956 27.3961 15.3464 26.9624 15.3464 26.4294V25.1797C15.3464 24.7937 15.5814 24.4566 15.9178 24.3602C16.7345 24.126 17.5176 23.7648 18.2451 23.2867C18.5445 23.09 18.9256 23.1435 19.1715 23.4168L19.9682 24.302C20.3117 24.6841 20.8633 24.6752 21.1983 24.3024L22.3524 23.0201C22.6867 22.6492 22.6978 22.0362 22.3527 21.6532L21.5557 20.7676C21.3098 20.4944 21.2617 20.0709 21.4387 19.7383C21.8689 18.93 22.1939 18.0599 22.4047 17.1524C22.4916 16.7786 22.7949 16.5175 23.1423 16.5175H24.2669C24.7467 16.5175 25.137 16.0839 25.137 15.5508V13.7377C25.137 13.2046 24.7467 12.771 24.2669 12.771H23.1423C22.7949 12.771 22.4916 12.5098 22.4047 12.1361C22.1939 11.2286 21.8689 10.3585 21.4387 9.55016C21.2617 9.21759 21.3098 8.79407 21.5557 8.52087L22.3524 7.63562C22.6968 7.25341 22.6878 6.64064 22.3527 6.26875L21.1987 4.98651C20.8642 4.61433 20.3125 4.60344 19.9685 4.98617L19.1716 5.87175C18.9257 6.14501 18.5444 6.1985 18.2452 6.0018C17.5176 5.52372 16.7346 5.16255 15.9178 4.92833C15.5815 4.8319 15.3464 4.49483 15.3464 4.10883V2.85903C15.3464 2.32599 14.9561 1.89231 14.4764 1.89231H12.8446C12.3649 1.89231 11.9745 2.32599 11.9745 2.85903V4.10871C11.9745 4.49471 11.7395 4.83179 11.4031 4.92822C10.5864 5.16244 9.80331 5.52361 9.07577 6.00169C8.77636 6.19833 8.39525 6.14484 8.14937 5.87163L7.35271 4.98639C7.00922 4.60429 6.45759 4.61315 6.12258 4.986L4.96848 6.2683C4.63424 6.63923 4.62306 7.25217 4.96817 7.63517L5.76519 8.52075C6.01107 8.79396 6.05921 9.21748 5.88224 9.55004C5.45197 10.3584 5.12697 11.2284 4.91617 12.136C4.82934 12.5098 4.52597 12.7709 4.17863 12.7709H3.05392C2.57419 12.7709 2.18384 13.2046 2.18384 13.7376V15.5508C2.18384 16.0838 2.57419 16.5175 3.05392 16.5175H4.17858C4.52597 16.5175 4.82929 16.7786 4.91612 17.1523C5.12692 18.0599 5.45197 18.93 5.88219 19.7383C6.05916 20.0709 6.01102 20.4944 5.76513 20.7676L4.96843 21.6528C4.62403 22.035 4.63302 22.6478 4.96812 23.0197L6.12213 24.3019C6.45662 24.6741 7.00831 24.685 7.3523 24.3023L8.14926 23.4167C8.33045 23.2154 8.7074 23.0446 9.07572 23.2867Z" fill="white"/>
<path d="M13.6603 20.9294C10.541 20.9294 8.0033 18.1097 8.0033 14.6438C8.0033 11.1779 10.541 8.35822 13.6603 8.35822C16.7797 8.35822 19.3174 11.1779 19.3174 14.6438C19.3174 18.1097 16.7797 20.9294 13.6603 20.9294ZM13.6603 10.0509C11.381 10.0509 9.52673 12.1113 9.52673 14.6438C9.52673 17.1763 11.3811 19.2367 13.6603 19.2367C15.9396 19.2367 17.7939 17.1763 17.7939 14.6438C17.7939 12.1113 15.9396 10.0509 13.6603 10.0509Z" fill="white"/>
</svg>
